# xmcd
#
# Track frame offsets: 
#        150
#        16051
#        35285
#        60090
#        76505
#        90013
#
# Disc length: 1524 seconds
#
# Revision: 0
# Processed by: cddbd v1.5.2PL0 Copyright (c) Steve Scherf et al.
# Submitted via: ExactAudioCopy v1.3
#
DISCID=2305f206
DTITLE=Addison Lea Thompson - Wapiti
DYEAR=2018
DGENRE=Country
TTITLE0=Stuck in the Rockies
TTITLE1=Late Fall
TTITLE2=Back to Montana
TTITLE3=Outlaws Like Me
TTITLE4=Me and Jim Beam
TTITLE5=Hey There Cowgirl
EXTD=
EXTT0=
EXTT1=
EXTT2=
EXTT3=
EXTT4=
EXTT5=
PLAYORDER=
